<svg width="293" height="299" viewBox="0 0 293 299" fill="none" xmlns="http://www.w3.org/2000/svg">
<rect width="293" height="299" fill="white"/>
<path d="M126.5 253C196.364 253 253 196.364 253 126.5C253 56.636 196.364 0 126.5 0C56.636 0 0 56.636 0 126.5C0 196.364 56.636 253 126.5 253Z" transform="translate(20 23)" stroke="#EEEEEE" stroke-width="4" stroke-miterlimit="10"/>
<path d="M107.314 214.627C166.581 214.627 214.627 166.581 214.627 107.314C214.627 48.0459 166.581 0 107.314 0C48.0459 0 0 48.0459 0 107.314C0 166.581 48.0459 214.627 107.314 214.627Z" transform="translate(39.1864 42.186)" stroke="#EEEEEE" stroke-width="4" stroke-miterlimit="10"/>
<path d="M4.87789 0.650381L0 4.96205e-06" transform="translate(119.184 188.523)" stroke="#EEEEEE" stroke-width="4" stroke-miterlimit="10" stroke-linecap="round" stroke-linejoin="round"/>
<path d="M4.87789 0.650386L-1.24051e-06 -2.48102e-06" transform="translate(71.7056 180.068)" stroke="#EEEEEE" stroke-width="4" stroke-miterlimit="10" stroke-linecap="round" stroke-linejoin="round"/>
<path d="M3.25193 -2.48102e-06L-2.48102e-06 3.57713" transform="translate(100.648 178.442)" stroke="#EEEEEE" stroke-width="4" stroke-miterlimit="10" stroke-linecap="round" stroke-linejoin="round"/>
<path d="M3.25193 4.96205e-06L-2.48102e-06 3.57712" transform="translate(102.274 146.248)" stroke="#EEEEEE" stroke-width="4" stroke-miterlimit="10" stroke-linecap="round" stroke-linejoin="round"/>
<path d="M1.24051e-06 4.96205e-06L2.27635 4.22751" transform="translate(90.2417 164.133)" stroke="#EEEEEE" stroke-width="4" stroke-miterlimit="10" stroke-linecap="round" stroke-linejoin="round"/>
<path d="M-4.96205e-06 2.48102e-06L2.27635 4.22751" transform="translate(122.761 225.27)" stroke="#EEEEEE" stroke-width="4" stroke-miterlimit="10" stroke-linecap="round" stroke-linejoin="round"/>
<path d="M-1.24051e-06 -4.96205e-06L1.95116 4.22751" transform="translate(86.3393 202.182)" stroke="#EEEEEE" stroke-width="4" stroke-miterlimit="10" stroke-linecap="round" stroke-linejoin="round"/>
<path d="M4.5527 -4.96205e-06L0 0.650383" transform="translate(124.062 135.517)" stroke="#EEEEEE" stroke-width="4" stroke-miterlimit="10" stroke-linecap="round" stroke-linejoin="round"/>
<path d="M2.27635 4.22751L-2.48102e-06 2.48102e-06" transform="translate(118.533 160.231)" stroke="#EEEEEE" stroke-width="4" stroke-miterlimit="10" stroke-linecap="round" stroke-linejoin="round"/>
<path d="M4.22751 1.95116L-1.24051e-06 -2.48102e-06" transform="translate(105.851 124.785)" stroke="#EEEEEE" stroke-width="4" stroke-miterlimit="10" stroke-linecap="round" stroke-linejoin="round"/>
<path d="M4.55269 1.62596L2.48102e-06 0" transform="translate(188.125 94.5425)" stroke="#EEEEEE" stroke-width="4" stroke-miterlimit="10" stroke-linecap="round" stroke-linejoin="round"/>
<path d="M3.25193 1.24051e-06L-2.48102e-06 3.57712" transform="translate(92.5179 104.624)" stroke="#EEEEEE" stroke-width="4" stroke-miterlimit="10" stroke-linecap="round" stroke-linejoin="round"/>
<path d="M4.5527 -2.48102e-06L0 0.650386" transform="translate(114.306 93.8921)" stroke="#EEEEEE" stroke-width="4" stroke-miterlimit="10" stroke-linecap="round" stroke-linejoin="round"/>
<path d="M4.5527 1.62596L-1.24051e-06 0" transform="translate(96.0951 83.1606)" stroke="#EEEEEE" stroke-width="4" stroke-miterlimit="10" stroke-linecap="round" stroke-linejoin="round"/>
<path d="M4.5527 0.650388L-4.96205e-06 0" transform="translate(191.051 221.368)" stroke="#EEEEEE" stroke-width="4" stroke-miterlimit="10" stroke-linecap="round" stroke-linejoin="round"/>
<path d="M4.87789 0.650388L2.48102e-06 0" transform="translate(145.85 214.864)" stroke="#EEEEEE" stroke-width="4" stroke-miterlimit="10" stroke-linecap="round" stroke-linejoin="round"/>
<path d="M4.5527 0.650388L1.24051e-06 0" transform="translate(90.2417 224.62)" stroke="#EEEEEE" stroke-width="4" stroke-miterlimit="10" stroke-linecap="round" stroke-linejoin="round"/>
<path d="M3.25193 4.96205e-06L4.96205e-06 3.57712" transform="translate(172.515 211.286)" stroke="#EEEEEE" stroke-width="4" stroke-miterlimit="10" stroke-linecap="round" stroke-linejoin="round"/>
<path d="M3.25193 0L4.96205e-06 3.57712" transform="translate(174.141 179.093)" stroke="#EEEEEE" stroke-width="4" stroke-miterlimit="10" stroke-linecap="round" stroke-linejoin="round"/>
<path d="M2.48102e-06 4.96205e-06L2.27635 4.22751" transform="translate(162.109 196.653)" stroke="#EEEEEE" stroke-width="4" stroke-miterlimit="10" stroke-linecap="round" stroke-linejoin="round"/>
<path d="M-4.96205e-06 2.48102e-06L1.95116 4.22751" transform="translate(127.639 204.132)" stroke="#EEEEEE" stroke-width="4" stroke-miterlimit="10" stroke-linecap="round" stroke-linejoin="round"/>
<path d="M4.96205e-06 -4.96205e-06L2.27634 4.22751" transform="translate(157.882 234.701)" stroke="#EEEEEE" stroke-width="4" stroke-miterlimit="10" stroke-linecap="round" stroke-linejoin="round"/>
<path d="M4.87789 0L2.48102e-06 0.650388" transform="translate(145.85 182.344)" stroke="#EEEEEE" stroke-width="4" stroke-miterlimit="10" stroke-linecap="round" stroke-linejoin="round"/>
<path d="M2.27634 4.2275L4.96205e-06 -2.48102e-06" transform="translate(190.401 193.076)" stroke="#EEEEEE" stroke-width="4" stroke-miterlimit="10" stroke-linecap="round" stroke-linejoin="round"/>
<path d="M4.2275 1.62597L0 4.96205e-06" transform="translate(177.719 157.629)" stroke="#EEEEEE" stroke-width="4" stroke-miterlimit="10" stroke-linecap="round" stroke-linejoin="round"/>
<path d="M3.57712 -1.24051e-06L4.96205e-06 3.25193" transform="translate(182.271 63.3235)" stroke="#EEEEEE" stroke-width="4" stroke-miterlimit="10" stroke-linecap="round" stroke-linejoin="round"/>
<path d="M3.57712 2.48102e-06L0 3.25193" transform="translate(130.566 109.826)" stroke="#EEEEEE" stroke-width="4" stroke-miterlimit="10" stroke-linecap="round" stroke-linejoin="round"/>
<path d="M0 2.48102e-06L0.975576 4.5527" transform="translate(169.589 101.697)" stroke="#EEEEEE" stroke-width="4" stroke-miterlimit="10" stroke-linecap="round" stroke-linejoin="round"/>
<path d="M0 2.48102e-06L0.650388 4.87789" transform="translate(145.199 80.5591)" stroke="#EEEEEE" stroke-width="4" stroke-miterlimit="10" stroke-linecap="round" stroke-linejoin="round"/>
<path d="M4.96205e-06 -2.48102e-06L4.8779 0.650386" transform="translate(149.752 103.648)" stroke="#EEEEEE" stroke-width="4" stroke-miterlimit="10" stroke-linecap="round" stroke-linejoin="round"/>
<path d="M-4.96205e-06 2.48102e-06L4.5527 0.975578" transform="translate(161.784 126.086)" stroke="#EEEEEE" stroke-width="4" stroke-miterlimit="10" stroke-linecap="round" stroke-linejoin="round"/>
<path d="M2.27635 1.24051e-06L0 3.90231" transform="translate(148.451 55.8447)" stroke="#EEEEEE" stroke-width="4" stroke-miterlimit="10" stroke-linecap="round" stroke-linejoin="round"/>
<path d="M2.60154 1.24051e-06L4.96205e-06 4.2275" transform="translate(205.035 78.6084)" stroke="#EEEEEE" stroke-width="4" stroke-miterlimit="10" stroke-linecap="round" stroke-linejoin="round"/>
<path d="M4.87789 0.650384L-2.48102e-06 2.48102e-06" transform="translate(164.06 78.9331)" stroke="#EEEEEE" stroke-width="4" stroke-miterlimit="10" stroke-linecap="round" stroke-linejoin="round"/>
<path d="M9.9241e-06 4.96205e-06L0.975573 4.5527" transform="translate(225.847 180.393)" stroke="#EEEEEE" stroke-width="4" stroke-miterlimit="10" stroke-linecap="round" stroke-linejoin="round"/>
<path d="M-2.48102e-06 4.96205e-06L0.975573 4.8779" transform="translate(201.458 159.255)" stroke="#EEEEEE" stroke-width="4" stroke-miterlimit="10" stroke-linecap="round" stroke-linejoin="round"/>
<path d="M-2.48102e-06 4.96205e-06L4.5527 0.975581" transform="translate(206.335 182.019)" stroke="#EEEEEE" stroke-width="4" stroke-miterlimit="10" stroke-linecap="round" stroke-linejoin="round"/>
<path d="M4.55269 0.650381L2.48102e-06 4.96205e-06" transform="translate(220.644 157.629)" stroke="#EEEEEE" stroke-width="4" stroke-miterlimit="10" stroke-linecap="round" stroke-linejoin="round"/>
<path d="M4.22751 0L1.24051e-06 2.27635" transform="translate(119.509 58.7712)" stroke="#EEEEEE" stroke-width="4" stroke-miterlimit="10" stroke-linecap="round" stroke-linejoin="round"/>
<path d="M3.25193 0L0 3.25193" transform="translate(234.627 135.191)" stroke="#EEEEEE" stroke-width="4" stroke-miterlimit="10" stroke-linecap="round" stroke-linejoin="round"/>
<path d="M3.25193 4.96205e-06L2.48102e-06 3.25193" transform="translate(212.514 209.66)" stroke="#EEEEEE" stroke-width="4" stroke-miterlimit="10" stroke-linecap="round" stroke-linejoin="round"/>
<path d="M6.20256e-07 -2.48102e-06L0.97558 4.87789" transform="translate(55.1208 152.427)" stroke="#EEEEEE" stroke-width="4" stroke-miterlimit="10" stroke-linecap="round" stroke-linejoin="round"/>
<path d="M2.48102e-06 -4.96205e-06L0.975578 4.87789" transform="translate(199.506 125.761)" stroke="#EEEEEE" stroke-width="4" stroke-miterlimit="10" stroke-linecap="round" stroke-linejoin="round"/>
<path d="M0 4.96205e-06L4.5527 0.650381" transform="translate(185.848 142.996)" stroke="#EEEEEE" stroke-width="4" stroke-miterlimit="10" stroke-linecap="round" stroke-linejoin="round"/>
<path d="M4.5527 1.62596L6.20256e-07 -4.96205e-06" transform="translate(64.8766 150.151)" stroke="#EEEEEE" stroke-width="4" stroke-miterlimit="10" stroke-linecap="round" stroke-linejoin="round"/>
<path d="M2.48102e-06 0L0.975578 4.5527" transform="translate(87.3149 133.565)" stroke="#EEEEEE" stroke-width="4" stroke-miterlimit="10" stroke-linecap="round" stroke-linejoin="round"/>
<path d="M6.20256e-07 0L4.5527 0.650388" transform="translate(64.8766 130.314)" stroke="#EEEEEE" stroke-width="4" stroke-miterlimit="10" stroke-linecap="round" stroke-linejoin="round"/>
<path d="M4.96205e-06 4.96205e-06L4.5527 0.975568" transform="translate(136.744 238.928)" stroke="#EEEEEE" stroke-width="4" stroke-miterlimit="10" stroke-linecap="round" stroke-linejoin="round"/>
<path d="M-1.24051e-06 4.96205e-06L2.27635 3.90231" transform="translate(102.599 206.408)" stroke="#EEEEEE" stroke-width="4" stroke-miterlimit="10" stroke-linecap="round" stroke-linejoin="round"/>
<path d="M4.5527 0.650386L0 -2.48102e-06" transform="translate(158.207 147.549)" stroke="#EEEEEE" stroke-width="4" stroke-miterlimit="10" stroke-linecap="round" stroke-linejoin="round"/>
<path d="M-2.48102e-06 -4.96205e-06L2.27635 4.22751" transform="translate(139.671 137.143)" stroke="#EEEEEE" stroke-width="4" stroke-miterlimit="10" stroke-linecap="round" stroke-linejoin="round"/>
<path d="M-2.48102e-06 2.48102e-06L4.87789 0.975578" transform="translate(151.053 161.857)" stroke="#EEEEEE" stroke-width="4" stroke-miterlimit="10" stroke-linecap="round" stroke-linejoin="round"/>
<path d="M2.60154 -1.24051e-06L-2.48102e-06 4.22751" transform="translate(222.595 105.599)" stroke="#EEEEEE" stroke-width="4" stroke-miterlimit="10" stroke-linecap="round" stroke-linejoin="round"/>
<path d="M4.55269 0.650381L2.48102e-06 4.96205e-06" transform="translate(214.14 138.118)" stroke="#EEEEEE" stroke-width="4" stroke-miterlimit="10" stroke-linecap="round" stroke-linejoin="round"/>
<path d="M3.90231 -2.48102e-06L-2.48102e-06 2.60154" transform="translate(69.7545 100.396)" stroke="#EEEEEE" stroke-width="4" stroke-miterlimit="10" stroke-linecap="round" stroke-linejoin="round"/>
</svg>
